<svg width="473" height="439" viewBox="0 0 473 439" fill="none" xmlns="http://www.w3.org/2000/svg">
<path d="M69.2217 406.005C161.524 449.993 311.169 450.007 403.471 406.005C495.773 362.004 495.76 290.691 403.471 246.703C311.182 202.715 161.524 202.715 69.2217 246.703C-23.0806 290.691 -23.0672 362.018 69.2217 406.005Z" fill="#F5F5F5"/>
<path d="M403.15 373.498C420.15 373.498 433.931 366.931 433.931 358.831C433.931 350.73 420.15 344.164 403.15 344.164C386.15 344.164 372.369 350.73 372.369 358.831C372.369 366.931 386.15 373.498 403.15 373.498Z" fill="#EBEBEB"/>
<path d="M62.2148 360.93L73.1047 354.648C79.1848 349.686 83.8125 343.175 86.4993 335.801C89.8613 326.532 89.3925 319.487 86.9815 315.951C84.0213 311.597 76.3462 312.361 76.0381 321.523C75.3952 339.579 70.1311 352.103 62.2148 360.93Z" fill="#03D7BD"/>
<path opacity="0.2" d="M62.2148 360.93L73.1047 354.648C79.1848 349.686 83.8125 343.175 86.4993 335.801C89.8613 326.532 89.3925 319.487 86.9815 315.951C84.0213 311.597 76.3462 312.361 76.0381 321.523C75.3952 339.579 70.1311 352.103 62.2148 360.93Z" fill="black"/>
<path d="M62.2152 361.602C62.0734 361.601 61.9358 361.554 61.8223 361.469C61.7087 361.384 61.625 361.265 61.5833 361.13C61.5416 360.994 61.544 360.849 61.5902 360.715C61.6363 360.581 61.7239 360.465 61.8402 360.383C87.0221 342.97 82.1464 318.686 82.0928 318.445C82.0744 318.357 82.0734 318.266 82.09 318.178C82.1066 318.09 82.1404 318.005 82.1896 317.93C82.2387 317.855 82.3022 317.79 82.3763 317.739C82.4505 317.689 82.534 317.653 82.6219 317.634C82.7099 317.616 82.8006 317.615 82.8889 317.632C82.9773 317.648 83.0614 317.682 83.1367 317.731C83.2119 317.78 83.2768 317.844 83.3275 317.918C83.3782 317.992 83.4138 318.076 83.4323 318.164C83.4323 318.418 88.5758 343.533 62.6439 361.482C62.518 361.568 62.3675 361.61 62.2152 361.602Z" fill="white"/>
<path d="M40.3945 373.535C40.3945 373.535 36.6038 370.454 37.5146 366.275C38.4255 362.096 40.8767 359.095 36.6842 353.711C32.4917 348.326 31.3263 341.147 36.3359 337.262C40.1534 334.248 46.114 338.508 48.2571 330.565C49.8377 324.752 49.3019 311.879 56.7091 307.593C64.1163 303.307 68.7643 309.763 67.5989 318.496C66.581 326.305 65.1343 333.82 66.2595 335.909C68.4294 339.928 72.1397 339.379 71.9656 346.719C71.8182 353.55 65.3486 359.203 65.3486 359.203L40.3945 373.535Z" fill="#03D7BD"/>
<path d="M52.8391 366.985C52.6754 366.983 52.5177 366.923 52.3947 366.815C52.2718 366.707 52.1918 366.558 52.1694 366.396C50.2539 350.523 54.8483 323.118 58.5988 314.974C58.6304 314.883 58.6809 314.801 58.7471 314.732C58.8132 314.663 58.8934 314.608 58.9823 314.573C59.0711 314.537 59.1665 314.521 59.2621 314.526C59.3577 314.53 59.4512 314.555 59.5364 314.599C59.6164 314.635 59.6883 314.686 59.7479 314.751C59.8076 314.815 59.8538 314.89 59.8837 314.973C59.9137 315.055 59.9269 315.143 59.9224 315.23C59.918 315.318 59.896 315.404 59.8579 315.483C56.1476 323.52 51.7139 351.005 53.549 366.181C53.5678 366.357 53.5165 366.533 53.4061 366.671C53.2957 366.809 53.1352 366.898 52.9596 366.918L52.8391 366.985Z" fill="white"/>
<path d="M52.4765 354.622C52.374 354.626 52.2721 354.603 52.1818 354.555C47.5339 352.291 44.5871 344.214 44.4665 343.839C44.4337 343.756 44.4179 343.666 44.4201 343.577C44.4223 343.487 44.4424 343.399 44.4793 343.318C44.5161 343.236 44.569 343.163 44.6347 343.102C44.7004 343.041 44.7776 342.994 44.8618 342.964C44.9461 342.933 45.0355 342.92 45.1249 342.925C45.2144 342.929 45.3019 342.952 45.3825 342.991C45.463 343.03 45.5349 343.085 45.5938 343.152C45.6528 343.22 45.6976 343.298 45.7256 343.383C45.7256 343.464 48.6055 351.286 52.7712 353.309C52.9079 353.375 53.018 353.486 53.0835 353.623C53.149 353.76 53.166 353.915 53.1318 354.063C53.0975 354.211 53.014 354.343 52.8949 354.437C52.7759 354.531 52.6284 354.582 52.4765 354.581V354.622Z" fill="white"/>
<path d="M52.3962 359.979C52.262 359.979 52.1309 359.938 52.0208 359.861C51.9106 359.785 51.8266 359.676 51.78 359.55C51.7134 359.387 51.714 359.203 51.7817 359.04C51.8494 358.877 51.9788 358.748 52.1417 358.68C59.9641 355.545 64.8398 346.236 64.8933 346.129C64.9751 345.971 65.1162 345.852 65.2858 345.798C65.4553 345.744 65.6394 345.759 65.7975 345.841C65.9556 345.923 66.0747 346.064 66.1287 346.233C66.1827 346.403 66.1672 346.587 66.0855 346.745C65.8712 347.147 60.9285 356.603 52.6909 359.925C52.5991 359.969 52.4974 359.987 52.3962 359.979Z" fill="white"/>
<path d="M325.82 287.916C325.82 287.916 319.967 278.433 319.391 268.132C318.815 257.832 321.078 253.546 324.186 252.313C327.293 251.081 327.535 254.872 329.128 257.108C330.722 259.345 333.977 258.073 335.183 251.094C336.388 244.116 340.782 232.342 349.917 230.051C359.963 227.56 354.578 239.347 352.047 243.942C349.515 248.536 347.559 254.805 349.22 256.506C350.881 258.207 353.466 255.059 355.918 257.979C358.905 261.502 349.622 274.187 344.291 277.254L325.82 287.916Z" fill="#03D7BD"/>
<path d="M333.844 283.938C333.756 283.935 333.669 283.914 333.589 283.877C333.509 283.84 333.438 283.788 333.378 283.723C333.318 283.659 333.272 283.583 333.241 283.5C333.211 283.417 333.197 283.33 333.201 283.242C334.108 266.672 339.275 250.617 348.203 236.628C348.253 236.556 348.318 236.494 348.393 236.447C348.468 236.399 348.552 236.368 348.64 236.354C348.728 236.341 348.817 236.345 348.903 236.366C348.989 236.388 349.07 236.427 349.14 236.481C349.281 236.585 349.375 236.74 349.402 236.913C349.43 237.086 349.389 237.263 349.288 237.405C340.52 251.189 335.446 266.997 334.554 283.309C334.548 283.397 334.526 283.483 334.488 283.562C334.449 283.641 334.395 283.712 334.329 283.771C334.263 283.829 334.187 283.874 334.103 283.903C334.02 283.932 333.932 283.944 333.844 283.938Z" fill="white"/>
<path d="M334.608 276.022C334.496 276.021 334.386 275.993 334.286 275.941C330.536 273.865 328.46 267.704 328.379 267.449C328.35 267.366 328.337 267.277 328.342 267.189C328.347 267.1 328.369 267.014 328.408 266.934C328.446 266.854 328.5 266.783 328.567 266.724C328.633 266.666 328.711 266.621 328.794 266.592C328.963 266.537 329.147 266.551 329.305 266.632C329.463 266.712 329.583 266.852 329.638 267.021C329.638 267.021 331.647 272.954 334.996 274.763C335.148 274.852 335.259 274.997 335.306 275.167C335.354 275.337 335.334 275.518 335.251 275.674C335.19 275.789 335.097 275.883 334.982 275.945C334.868 276.007 334.737 276.034 334.608 276.022Z" fill="white"/>
<path d="M335.264 271.964C335.115 271.963 334.972 271.912 334.855 271.82C334.739 271.728 334.656 271.599 334.621 271.455C334.599 271.371 334.594 271.283 334.606 271.196C334.619 271.11 334.648 271.027 334.693 270.952C334.738 270.877 334.797 270.812 334.868 270.761C334.938 270.709 335.018 270.672 335.103 270.652C344.774 268.2 348.123 263.137 348.149 263.084C348.197 263.009 348.259 262.944 348.331 262.893C348.404 262.842 348.485 262.806 348.572 262.787C348.658 262.768 348.748 262.766 348.835 262.781C348.922 262.796 349.006 262.829 349.08 262.876C349.155 262.924 349.22 262.985 349.271 263.058C349.322 263.13 349.358 263.212 349.377 263.299C349.396 263.385 349.398 263.474 349.383 263.562C349.368 263.649 349.335 263.732 349.288 263.807C349.141 264.035 345.658 269.352 335.438 271.951L335.264 271.964Z" fill="white"/>
<path d="M180.086 267.101C180.086 267.101 167.241 263.967 166.571 239.91C165.861 213.952 169.719 183.653 154.516 181.202C139.313 178.751 130.874 197.275 131.062 218.908C131.236 237.848 138.871 278.969 180.032 287.033L180.086 267.101Z" fill="#03D7BD"/>
<path opacity="0.2" d="M180.086 267.101C180.086 267.101 167.241 263.967 166.571 239.91C165.861 213.952 169.719 183.653 154.516 181.202C139.313 178.751 130.874 197.275 131.062 218.908C131.236 237.848 138.871 278.969 180.032 287.033L180.086 267.101Z" fill="black"/>
<path d="M180.086 284.57H179.965C170.71 282.882 163.169 277.779 157.556 269.42C140.92 244.6 146.157 198.255 147.885 190.165C147.924 189.992 148.028 189.842 148.175 189.744C148.323 189.647 148.502 189.61 148.676 189.642C148.849 189.684 149 189.79 149.097 189.94C149.194 190.089 149.23 190.27 149.198 190.446C147.497 198.483 142.286 244.239 158.668 268.67C161.053 272.459 164.198 275.711 167.906 278.22C171.614 280.729 175.803 282.439 180.207 283.244C180.294 283.26 180.377 283.293 180.452 283.342C180.526 283.39 180.59 283.453 180.64 283.527C180.69 283.6 180.725 283.683 180.742 283.77C180.76 283.857 180.76 283.947 180.742 284.034C180.714 284.186 180.632 284.324 180.512 284.422C180.392 284.52 180.241 284.572 180.086 284.57Z" fill="white"/>
<path d="M180.087 346.304C166.813 348.099 145.261 348.072 132.818 338.267C120.374 328.462 122.973 320.023 127.755 316.501C132.537 312.978 136.689 308.96 128.465 301.137C120.24 293.315 107.033 280.75 102.747 261.904C98.4607 243.058 100.577 231.271 108.989 227.346C117.146 223.542 119.303 229.596 124.299 242.08C129.295 254.564 140.533 243.862 150.151 247.76C159.768 251.657 159.379 259.373 159.982 266.003C160.585 272.633 163.759 274.468 169.211 274.468C174.663 274.468 180.087 277.603 180.087 283.845V346.304Z" fill="#03D7BD"/>
<path d="M180.086 324.415C180.028 324.428 179.969 324.428 179.912 324.415C179.336 324.255 165.606 320.263 145.608 301.899C124.311 282.343 114.265 253.009 114.158 252.714C114.106 252.545 114.122 252.363 114.202 252.206C114.282 252.049 114.42 251.928 114.586 251.87C114.753 251.815 114.935 251.827 115.093 251.905C115.251 251.983 115.372 252.119 115.43 252.286C115.524 252.58 125.476 281.593 146.519 300.908C166.236 319.031 180.126 323.089 180.273 323.13C180.358 323.154 180.437 323.195 180.505 323.25C180.574 323.305 180.631 323.373 180.673 323.451C180.715 323.528 180.742 323.612 180.752 323.7C180.761 323.787 180.753 323.876 180.729 323.96C180.685 324.095 180.599 324.213 180.483 324.295C180.367 324.377 180.228 324.419 180.086 324.415Z" fill="white"/>
<path d="M151.194 306.561C151.059 306.563 150.927 306.523 150.817 306.446C150.706 306.369 150.623 306.259 150.578 306.132C146.278 295.095 145.3 271.48 145.22 270.476C145.216 270.299 145.281 270.128 145.401 269.998C145.521 269.868 145.686 269.79 145.863 269.779C146.038 269.782 146.206 269.849 146.334 269.967C146.463 270.086 146.543 270.248 146.559 270.422C146.559 270.663 147.564 294.814 151.783 305.65C151.816 305.733 151.831 305.821 151.829 305.91C151.827 305.998 151.807 306.086 151.771 306.167C151.735 306.248 151.683 306.321 151.618 306.381C151.554 306.442 151.478 306.49 151.395 306.521C151.33 306.544 151.262 306.557 151.194 306.561Z" fill="white"/>
<path d="M151.088 322.433C149.853 322.443 148.619 322.38 147.391 322.245C147.303 322.235 147.218 322.207 147.141 322.164C147.064 322.12 146.996 322.062 146.941 321.992C146.886 321.923 146.846 321.843 146.822 321.758C146.798 321.672 146.791 321.583 146.802 321.495C146.812 321.407 146.84 321.322 146.883 321.245C146.927 321.168 146.985 321.1 147.055 321.045C147.124 320.99 147.204 320.95 147.289 320.926C147.375 320.902 147.464 320.895 147.552 320.906C147.672 320.906 160.143 322.326 165.862 316.499C165.922 316.429 165.995 316.371 166.078 316.33C166.161 316.29 166.251 316.266 166.343 316.262C166.436 316.258 166.528 316.273 166.614 316.306C166.7 316.339 166.778 316.389 166.844 316.454C166.91 316.519 166.961 316.597 166.996 316.682C167.03 316.768 167.046 316.86 167.043 316.952C167.04 317.044 167.018 317.135 166.979 317.218C166.939 317.302 166.883 317.376 166.813 317.437C162.674 321.71 155.455 322.433 151.088 322.433Z" fill="white"/>
<path d="M141.446 68.7958L139.999 60.4509L132.552 65.3534C131.871 64.014 130.907 62.8392 129.726 61.911L133.288 52.2668L126.591 50.78L121.689 60.1562C119.915 60.4555 118.195 61.0152 116.585 61.8172L114.456 54.7448L106.499 61.0001L107.022 69.3048C105.401 71.1197 103.932 73.064 102.628 75.118L96.0649 74.7832L91.4571 85.1104L97.0962 87.5215C96.5075 89.6575 96.1351 91.8474 95.9845 94.058L88.8184 100.648L90.2516 109.006L97.7124 104.104C98.389 105.442 99.3543 106.613 100.539 107.533L97.0427 117.191L103.74 118.664L110.759 111.833C112.379 111.578 111.978 108.524 113.746 107.654L115.875 114.699L123.818 108.457L123.618 105.189C125.225 103.394 131.306 99.4427 132.619 97.3799L134.266 94.701L138.874 84.3737L136.731 80.4893L134.347 75.4261L141.446 68.7958ZM117.135 96.2681C111.027 101.063 109.098 102.122 108.066 95.7056C107.035 89.2895 110.531 79.5383 116.639 74.7296C122.747 69.9209 125.078 69.5861 126.176 75.9887C127.274 82.3913 123.256 91.5264 117.135 96.2681Z" fill="#C8C7C7"/>
<path d="M126.646 50.78L135.339 55.7896L130.436 65.139L121.743 60.1295L126.646 50.78Z" fill="#FCFCFC"/>
<path d="M148.693 65.461L141.246 70.3634L132.553 65.3538L140 60.4514L148.693 65.461Z" fill="#FCFCFC"/>
<path d="M147.501 89.3417L141.862 86.944L133.169 81.9344L138.808 84.3321L147.501 89.3417Z" fill="#C8C7C7"/>
<path d="M97.0293 117.189L105.722 122.186L109.285 112.541L100.592 107.532L97.0293 117.189Z" fill="#C8C7C7"/>
<path d="M124.488 119.708L115.808 114.698L113.679 107.653L122.372 112.662L124.488 119.708Z" fill="#C8C7C7"/>
<path d="M150.128 73.8043L148.695 65.4595L141.247 70.3619C140.562 69.0219 139.593 67.8472 138.408 66.9195L141.971 57.2754L135.34 55.7886L130.424 65.1648C128.651 65.464 126.931 66.0237 125.321 66.8257L123.205 59.7802L115.248 66.0354L115.771 74.3401C114.149 76.1679 112.679 78.1256 111.377 80.1936L104.8 79.8587L100.193 90.1859L105.832 92.597C105.248 94.7388 104.876 96.9326 104.72 99.1469L97.5674 105.643L99.0006 114.002L106.448 109.099C107.134 110.435 108.103 111.606 109.288 112.528L105.725 122.172L112.422 123.659L117.324 114.283C119.105 113.987 120.83 113.422 122.441 112.609L124.558 119.654L132.514 113.412L131.992 105.108C133.612 103.293 135.081 101.348 136.385 99.2943L142.962 99.6157L147.569 89.2885L141.85 86.8909C142.443 84.7506 142.82 82.5563 142.975 80.3409L150.128 73.8043ZM125.843 101.33C119.749 106.126 113.909 104.826 112.797 98.4236C111.685 92.021 115.744 82.9261 121.852 78.1308C127.96 73.3355 133.786 74.6482 134.898 81.0508C136.01 87.4534 131.951 96.535 125.843 101.33Z" fill="#EBEBEB"/>
<path d="M123.203 59.7528L114.51 54.7432L106.554 60.9984L115.247 66.008L123.203 59.7528Z" fill="#FCFCFC"/>
<path d="M106.554 61L107.076 69.3047L115.769 74.3142L115.247 66.0096L106.554 61Z" fill="#C8C7C7"/>
<path d="M111.377 80.1276L102.683 75.118L96.1201 74.7965L104.8 79.8061L111.377 80.1276Z" fill="#FCFCFC"/>
<path d="M96.1195 74.7965L91.5117 85.1104L100.191 90.1199L104.799 79.8061L96.1195 74.7965Z" fill="#C8C7C7"/>
<path d="M104.72 99.0667L96.0402 94.0571L88.874 100.647L97.5537 105.657L104.72 99.0667Z" fill="#FCFCFC"/>
<path d="M99.0004 114.016L90.3073 109.007L88.874 100.649L97.5537 105.658L99.0004 114.016Z" fill="#C8C7C7"/>
<path d="M135.34 55.7896L126.646 50.78L133.29 52.2668L141.97 57.2764L135.34 55.7896Z" fill="#FCFCFC"/>
<path d="M102.522 30.9148V18.4444L92.5967 22.9182C92.071 20.8024 91.1631 18.8006 89.9177 17.0112L96.173 4.40683L88.5381 0L80.7424 11.7203C78.57 11.5305 76.3811 11.7439 74.2862 12.3498L73.1879 1.5136L62.3918 7.75548L61.3069 19.8106C58.9573 21.8926 56.7968 24.1786 54.8507 26.6419L47.055 23.963L39.4201 37.1968L45.6619 42.5547C44.5086 45.4714 43.6122 48.4832 42.983 51.5559L33.0576 58.5345V71.0182L42.983 66.5444C43.5087 68.6602 44.4166 70.6621 45.6619 72.4515L39.4468 85.0692L47.0818 89.476L54.8774 77.7557C57.0499 77.9449 59.2386 77.7315 61.3336 77.1262L62.4186 87.9624L73.2147 81.7205L74.313 69.6654C77.6827 68.4359 80.6677 66.3381 82.966 63.5842L88.5649 65.5533L96.1998 52.3328L91.5117 48.3144C92.5294 44.9635 92.9066 41.4509 92.6235 37.9603L102.522 30.9148ZM67.7899 62.0706C59.512 66.8525 54.3952 63.4101 54.3952 53.8865C54.3952 44.363 61.2399 32.5891 69.5311 27.8072C77.8224 23.0253 82.832 26.4678 82.832 36.0717C82.832 45.6756 76.0811 57.2754 67.7899 62.0706Z" fill="#C8C7C7"/>
<path d="M97.2185 4.9962L88.5388 0L80.7432 11.7203L89.4229 16.7299L97.2185 4.9962Z" fill="#FCFCFC"/>
<path d="M111.216 23.4539L102.523 18.4443L92.5977 22.9181L101.291 27.9277L111.216 23.4539Z" fill="#FCFCFC"/>
<path d="M71.0723 92.9726L62.3926 87.9631L61.3076 77.1268L69.9873 82.1364L71.0723 92.9726Z" fill="#C8C7C7"/>
<path d="M39.4072 85.0705L48.1003 90.0801L54.3556 77.4758L45.6625 72.4662L39.4072 85.0705Z" fill="#C8C7C7"/>
<path d="M111.215 35.9919V23.5215L101.29 27.9551C100.77 25.8375 99.8615 23.8346 98.6111 22.0481L104.866 9.44379L97.2315 5.02356L89.4358 16.7572C87.2633 16.5608 85.0732 16.7744 82.9796 17.3868L81.8812 6.52376L71.0852 12.7657L69.9868 24.8208C67.6406 26.9062 65.4804 29.1919 63.5306 31.6521L55.735 28.9731L48.1 42.207L54.3553 47.5649C53.1959 50.4794 52.2993 53.4918 51.6764 56.566L41.751 63.5446V76.0284L51.6764 71.5546C52.1963 73.6724 53.1046 75.6753 54.3553 77.4616L48.1 90.066L55.735 94.4728L63.5306 82.7525C65.7031 82.9423 67.8919 82.7289 69.9868 82.123L71.0852 92.9592L81.8812 86.7173L82.9662 74.6621C85.3158 72.5802 87.4763 70.2942 89.4224 67.8309L97.2181 70.5098L104.853 57.2893L98.5977 51.9315C99.7568 49.0168 100.653 46.0045 101.277 42.9303L111.215 35.9919ZM76.4832 67.1478C68.1919 71.9296 61.4678 68.0452 61.4678 58.4815C61.4678 48.9177 68.1651 37.2778 76.4832 32.4825C84.8013 27.6872 91.4852 31.5851 91.4852 41.1488C91.4852 50.7126 84.7611 62.2855 76.4832 67.0808V67.1478Z" fill="#EBEBEB"/>
<path d="M54.8504 26.6668L63.5301 31.6764L55.7344 28.9573L47.0547 23.9343L54.8504 26.6668Z" fill="#F0F0F0"/>
<path d="M47.055 23.9504L39.418 37.1887L48.1082 42.202L55.7452 28.9636L47.055 23.9504Z" fill="#FCFCFC"/>
<path d="M39.4072 37.1693L48.1003 42.1789L54.3556 47.5635L45.6625 42.5673L39.4072 37.1693Z" fill="#C8C7C7"/>
<path d="M42.983 51.5684L51.6761 56.5779L41.7507 63.5565L33.0576 58.547L42.983 51.5684Z" fill="#FCFCFC"/>
<path d="M33.0576 58.5487L41.7507 63.5583V76.0421L33.0576 71.0325V58.5487Z" fill="#C8C7C7"/>
<path d="M81.8808 6.52142L73.1877 1.51184L62.3916 7.75372L71.0713 12.7633L81.8808 6.52142Z" fill="#FCFCFC"/>
<path d="M193.326 364.229L319.235 291.523C319.513 291.426 319.753 291.245 319.923 291.005C320.093 290.765 320.184 290.478 320.184 290.184C320.184 289.89 320.093 289.603 319.923 289.363C319.753 289.123 319.513 288.942 319.235 288.844L307.595 282.147C306.874 281.784 306.078 281.595 305.271 281.595C304.464 281.595 303.668 281.784 302.947 282.147L176.998 354.786C176.72 354.884 176.48 355.065 176.31 355.305C176.14 355.545 176.049 355.832 176.049 356.126C176.049 356.42 176.14 356.706 176.31 356.946C176.48 357.186 176.72 357.368 176.998 357.465L188.678 364.162C189.394 364.536 190.187 364.736 190.994 364.748C191.801 364.759 192.6 364.582 193.326 364.229Z" fill="#E0E0E0"/>
<path d="M315.78 10.811L202.247 76.3643C200.559 77.4657 199.155 78.9492 198.147 80.6945C197.14 82.4398 196.557 84.3979 196.447 86.4102V355.736C196.447 359.433 199.046 360.933 202.247 359.084L315.78 293.531C317.47 292.432 318.876 290.949 319.884 289.203C320.892 287.458 321.473 285.498 321.58 283.485V14.1597C321.58 10.4628 318.995 8.96259 315.78 10.811Z" fill="#455A64"/>
<path d="M202.246 76.3647L315.779 10.8115C318.645 9.15054 321.016 10.1819 321.498 13.0618C321.231 11.2511 320.582 9.51774 319.597 7.97557C318.611 6.4334 317.31 5.1174 315.779 4.11416L311.064 1.43524C309.267 0.523336 307.28 0.0480957 305.264 0.0480957C303.249 0.0480957 301.262 0.523336 299.464 1.43524L185.918 66.9349C184.208 68.0072 182.798 69.4958 181.819 71.2614L198.147 80.6376C199.125 78.886 200.537 77.4147 202.246 76.3647Z" fill="#37474F"/>
<path d="M180.092 346.307C180.202 348.319 180.784 350.277 181.792 352.023C182.799 353.768 184.204 355.251 185.892 356.353L190.62 359.032C192.256 359.85 194.047 360.314 195.876 360.393C197.704 360.471 199.528 360.163 201.228 359.487C198.55 360.532 196.42 358.992 196.42 355.683V86.4113C196.487 84.3904 197.073 82.4208 198.121 80.6918L181.793 71.3156C180.759 73.0315 180.174 74.98 180.092 76.9815V346.307Z" fill="#263238"/>
<path d="M205.367 112.247L312.698 50.2969C314.627 49.1986 316.181 50.096 316.181 52.3061V251.645C316.116 252.853 315.767 254.029 315.162 255.076C314.557 256.124 313.713 257.013 312.698 257.672L205.407 319.622C203.479 320.734 201.925 319.837 201.925 317.613V118.275C201.986 117.07 202.329 115.897 202.927 114.85C203.525 113.803 204.361 112.911 205.367 112.247Z" fill="white"/>
<path d="M259.013 53.7962C258.42 54.1851 257.927 54.7077 257.574 55.3219C257.22 55.9361 257.015 56.6247 256.977 57.3323C256.977 58.6718 257.887 59.1674 259.013 58.5111C259.607 58.1245 260.102 57.6025 260.456 56.9878C260.81 56.3731 261.013 55.6833 261.049 54.9749C261.049 53.6756 260.138 53.1532 259.013 53.7962Z" fill="#37474F"/>
<path d="M259.014 298.18C256.673 299.711 254.725 301.773 253.329 304.198C251.932 306.623 251.127 309.343 250.978 312.137C250.978 317.267 254.581 319.356 259.014 316.785C261.355 315.252 263.302 313.19 264.699 310.765C266.095 308.341 266.901 305.621 267.051 302.827C267.078 297.697 263.461 295.608 259.014 298.18Z" fill="#37474F"/>
<path d="M239.737 74.5298C238.56 75.3112 237.583 76.3584 236.885 77.5869C236.187 78.8154 235.787 80.1908 235.719 81.6021C235.719 84.2007 237.54 85.2588 239.737 83.9596C240.927 83.1855 241.917 82.1416 242.627 80.9126C243.337 79.6836 243.746 78.3044 243.822 76.8872C243.822 74.2886 242.001 73.2305 239.737 74.5298Z" fill="#37474F"/>
<path d="M249.744 73.6463C249.744 75.3876 251.084 76.0439 252.651 75.1197L279.44 59.6221C280.27 59.1039 280.966 58.3971 281.471 57.5591C281.976 56.7212 282.276 55.7759 282.347 54.8001C282.347 53.0722 281.007 52.4158 279.44 53.3401L252.651 68.8376C251.823 69.3546 251.128 70.0593 250.623 70.8947C250.118 71.7302 249.817 72.6728 249.744 73.6463Z" fill="#37474F"/>
<path d="M189.146 120.875C190.096 121.494 190.887 122.328 191.455 123.31C192.023 124.292 192.351 125.395 192.414 126.527C192.414 128.617 190.954 129.461 189.146 128.416C188.198 127.794 187.41 126.959 186.845 125.977C186.279 124.995 185.953 123.895 185.891 122.763C185.891 120.687 187.351 119.843 189.146 120.875Z" fill="#37474F"/>
<path d="M189.146 146.029C190.096 146.648 190.887 147.483 191.455 148.465C192.023 149.447 192.351 150.549 192.414 151.681C192.414 153.758 190.954 154.602 189.146 153.57C188.198 152.949 187.41 152.113 186.845 151.132C186.279 150.15 185.953 149.049 185.891 147.918C185.891 145.828 187.351 144.984 189.146 146.029Z" fill="#37474F"/>
<path d="M188.129 121.384C189.079 122.003 189.87 122.837 190.438 123.819C191.006 124.801 191.335 125.903 191.397 127.036C191.397 129.112 189.937 129.956 188.129 128.925C187.178 128.306 186.387 127.471 185.819 126.489C185.251 125.507 184.923 124.405 184.86 123.272C184.874 121.183 186.334 120.379 188.129 121.384Z" fill="#455A64"/>
<path d="M188.129 146.524C189.081 147.144 189.873 147.981 190.441 148.965C191.009 149.95 191.337 151.055 191.397 152.19C191.397 154.266 189.937 155.11 188.129 154.065C187.176 153.448 186.383 152.614 185.815 151.632C185.247 150.649 184.92 149.546 184.86 148.412C184.874 146.336 186.334 145.492 188.129 146.524Z" fill="#455A64"/>
<path d="M337.908 58.6165C337.908 56.393 336.355 55.4956 334.426 56.6073L321.58 64.0146L227.135 118.557C226.12 119.217 225.276 120.106 224.671 121.154C224.066 122.201 223.717 123.377 223.652 124.585V323.87C223.652 326.094 225.206 326.991 227.135 325.879L321.621 271.323L334.426 263.929C335.44 263.27 336.285 262.38 336.89 261.333C337.495 260.285 337.844 259.11 337.908 257.902V58.6165Z" fill="white"/>
<path d="M339.247 58.6171C339.331 57.9453 339.215 57.2637 338.914 56.6573C338.613 56.051 338.14 55.5469 337.554 55.2081C336.968 54.8693 336.295 54.7108 335.619 54.7525C334.943 54.7942 334.295 55.0342 333.755 55.4425L321.499 62.5283L226.464 117.446C225.24 118.219 224.223 119.277 223.5 120.53C222.776 121.783 222.369 123.193 222.312 124.639V323.871C222.258 324.539 222.387 325.21 222.684 325.812C222.981 326.413 223.436 326.923 223.999 327.286C224.479 327.565 225.025 327.708 225.58 327.701C226.365 327.677 227.131 327.451 227.804 327.045L322.905 272.127L335.135 265.068C336.351 264.288 337.363 263.228 338.086 261.977C338.808 260.725 339.22 259.319 339.287 257.875L339.247 58.6171ZM321.526 269.837L320.427 270.48L226.518 324.701C226.36 324.822 226.177 324.907 225.982 324.949C225.788 324.99 225.586 324.988 225.393 324.942C225.218 324.835 225.044 324.46 225.044 323.844V124.586C225.114 123.613 225.403 122.669 225.89 121.824C226.377 120.98 227.05 120.257 227.857 119.71L321.673 65.4617L335.068 57.7062C335.225 57.585 335.408 57.5004 335.603 57.4587C335.798 57.417 335.999 57.4192 336.193 57.4651C336.367 57.5723 336.541 57.9473 336.541 58.5635V257.902C336.472 258.875 336.182 259.819 335.695 260.663C335.208 261.508 334.535 262.231 333.728 262.778L321.499 269.837H321.526Z" fill="#03D7BD"/>
<path d="M280.778 104.921C292.833 97.983 302.544 103.582 302.544 117.499C302.544 131.416 292.793 148.307 280.778 155.191C268.763 162.076 259.012 156.531 259.012 142.627C259.012 128.724 268.763 111.873 280.778 104.921Z" fill="#03D7BD"/>
<path d="M280.779 115.852C284.677 113.602 287.838 115.423 287.838 119.87C287.705 122.32 286.997 124.704 285.771 126.829C284.544 128.954 282.834 130.76 280.779 132.1C276.881 134.35 273.72 132.528 273.72 128.081C273.852 125.632 274.56 123.247 275.787 121.123C277.013 118.998 278.724 117.192 280.779 115.852Z" fill="#03D7BD"/>
<path d="M294.535 139.855C294.535 132.461 289.352 129.461 282.936 133.158L278.917 135.475C272.514 139.172 267.317 148.173 267.317 155.567V157.563C271.028 158.782 275.689 158.125 280.712 155.192C286.276 151.76 290.982 147.1 294.468 141.569L294.535 139.855Z" fill="#03D7BD"/>
<path opacity="0.7" d="M280.779 115.852C284.677 113.602 287.838 115.423 287.838 119.87C287.705 122.32 286.997 124.704 285.771 126.829C284.544 128.954 282.834 130.76 280.779 132.1C276.881 134.35 273.72 132.528 273.72 128.081C273.852 125.632 274.56 123.247 275.787 121.123C277.013 118.998 278.724 117.192 280.779 115.852Z" fill="white"/>
<path opacity="0.7" d="M294.535 139.855C294.535 132.461 289.352 129.461 282.936 133.158L278.917 135.475C272.514 139.172 267.317 148.173 267.317 155.567V157.563C271.028 158.782 275.689 158.125 280.712 155.192C286.276 151.76 290.982 147.1 294.468 141.569L294.535 139.855Z" fill="white"/>
<path d="M238.666 185.798L266.674 169.631C268.014 168.894 268.991 169.484 268.991 170.97V171.895C268.949 172.7 268.717 173.483 268.314 174.182C267.912 174.88 267.35 175.473 266.674 175.913L238.666 192.08C237.393 192.817 236.349 192.214 236.349 190.741V189.817C236.392 189.012 236.625 188.229 237.027 187.531C237.43 186.833 237.991 186.239 238.666 185.798Z" fill="#03D7BD"/>
<path opacity="0.1" d="M238.666 185.798L266.674 169.631C268.014 168.894 268.991 169.484 268.991 170.97V171.895C268.949 172.7 268.717 173.483 268.314 174.182C267.912 174.88 267.35 175.473 266.674 175.913L238.666 192.08C237.393 192.817 236.349 192.214 236.349 190.741V189.817C236.392 189.012 236.625 188.229 237.027 187.531C237.43 186.833 237.991 186.239 238.666 185.798Z" fill="black"/>
<path d="M237.514 205.315L322.248 156.397C322.878 156.022 323.4 156.317 323.4 157.067V166.952C323.377 167.354 323.26 167.744 323.06 168.092C322.861 168.441 322.583 168.739 322.248 168.962L237.514 217.879C236.871 218.254 236.349 217.946 236.349 217.209V207.324C236.372 206.921 236.489 206.529 236.692 206.18C236.894 205.831 237.176 205.535 237.514 205.315Z" fill="#03D7BD"/>
<path opacity="0.2" d="M237.514 205.315L322.248 156.397C322.878 156.022 323.4 156.317 323.4 157.067V166.952C323.377 167.354 323.26 167.744 323.06 168.092C322.861 168.441 322.583 168.739 322.248 168.962L237.514 217.879C236.871 218.254 236.349 217.946 236.349 217.209V207.324C236.372 206.921 236.489 206.529 236.692 206.18C236.894 205.831 237.176 205.535 237.514 205.315Z" fill="white"/>
<path d="M238.666 229.773L266.674 213.606C268.014 212.869 268.991 213.472 268.991 214.945V215.869C268.95 216.674 268.718 217.458 268.316 218.157C267.913 218.855 267.35 219.448 266.674 219.888L238.666 236.055C237.393 236.805 236.349 236.202 236.349 234.715V233.791C236.394 232.987 236.628 232.205 237.03 231.507C237.432 230.809 237.993 230.215 238.666 229.773Z" fill="#03D7BD"/>
<path opacity="0.1" d="M238.666 229.773L266.674 213.606C268.014 212.869 268.991 213.472 268.991 214.945V215.869C268.95 216.674 268.718 217.458 268.316 218.157C267.913 218.855 267.35 219.448 266.674 219.888L238.666 236.055C237.393 236.805 236.349 236.202 236.349 234.715V233.791C236.394 232.987 236.628 232.205 237.03 231.507C237.432 230.809 237.993 230.215 238.666 229.773Z" fill="black"/>
<path d="M237.514 249.289L322.248 200.372C322.878 199.997 323.4 200.305 323.4 201.042V210.927C323.377 211.328 323.26 211.718 323.06 212.067C322.861 212.415 322.583 212.713 322.248 212.936L237.514 261.853C236.871 262.228 236.349 261.933 236.349 261.183V251.298C236.372 250.895 236.489 250.504 236.692 250.155C236.894 249.805 237.176 249.509 237.514 249.289Z" fill="#03D7BD"/>
<path opacity="0.2" d="M237.514 249.289L322.248 200.372C322.878 199.997 323.4 200.305 323.4 201.042V210.927C323.377 211.328 323.26 211.718 323.06 212.067C322.861 212.415 322.583 212.713 322.248 212.936L237.514 261.853C236.871 262.228 236.349 261.933 236.349 261.183V251.298C236.372 250.895 236.489 250.504 236.692 250.155C236.894 249.805 237.176 249.509 237.514 249.289Z" fill="white"/>
<path d="M271.308 254.902L304.795 235.6C306.134 234.85 307.126 235.453 307.126 236.94V247.28C307.082 248.086 306.848 248.871 306.443 249.569C306.038 250.268 305.473 250.86 304.795 251.299L271.308 270.614C269.969 271.35 268.991 270.748 268.991 269.274V258.92C269.038 258.116 269.272 257.334 269.674 256.636C270.076 255.939 270.636 255.345 271.308 254.902Z" fill="#03D7BD"/>
<path opacity="0.1" d="M271.308 254.902L304.795 235.6C306.134 234.85 307.126 235.453 307.126 236.94V247.28C307.082 248.086 306.848 248.871 306.443 249.569C306.038 250.268 305.473 250.86 304.795 251.299L271.308 270.614C269.969 271.35 268.991 270.748 268.991 269.274V258.92C269.038 258.116 269.272 257.334 269.674 256.636C270.076 255.939 270.636 255.345 271.308 254.902Z" fill="black"/>
<path d="M350.604 211.258C350.604 211.258 334.155 188.567 333.191 185.808C332.427 183.772 333.191 180.745 333.432 179.338C333.673 177.932 333.887 174.798 334.128 173.981C334.53 172.454 332.561 172.762 331.45 174.155C330.338 175.548 329.963 178.334 329.387 178.789C328.811 179.245 324.431 172.855 322.14 169.909C319.85 166.962 318.417 165.167 317.01 166.265C316.006 167.056 316.756 168.77 318.417 171.288C319.387 172.644 320.281 174.053 321.096 175.508C321.35 176.057 319.984 176.097 319.247 177.235C318.671 178.119 319.247 179.553 318.443 180.236C317.949 180.612 317.61 181.157 317.491 181.768C317.373 182.378 317.483 183.01 317.8 183.544C319.291 185.886 321.214 187.922 323.466 189.545C325.931 191.246 326.922 191.849 328.382 194.166C329.842 196.483 342.942 220.152 343.826 221.572C344.71 222.991 346.411 225.885 348.997 225.965C351.582 226.045 372.745 207.829 373.83 206.918C377.313 204.011 378.424 203.596 379.014 206.208C379.217 207.136 379.369 208.076 379.469 209.021C379.885 212.343 382.148 224.21 382.148 224.21C382.148 224.21 392.864 229.394 401.664 226.889C410.464 224.384 413.438 220.647 413.438 220.647L409.031 213.468C410.223 210.508 415.728 198.506 417.51 190.108L389.917 185.647C389.354 185.527 388.444 185.299 387.238 184.991C385.725 184.589 381.88 183.263 378.974 185.808C369.49 194.072 350.631 211.258 350.631 211.258" fill="#FFA8A7"/>
<path d="M405.306 350.482L400.363 357.354C402.61 358.402 405.064 358.929 407.543 358.894C411.976 359.055 413.195 357.554 413.356 357.26C414.106 355.652 412.941 352.759 412.619 350.268L405.306 350.482Z" fill="#37474F"/>
<path d="M400.646 354.057C400.646 354.057 394.646 353.669 390.507 353.16C386.368 352.651 383.086 354.66 384.05 356.361C385.015 358.062 387.305 359.482 390.868 360.674C393.909 361.706 397.566 362.443 400.727 363.353C403.888 364.264 406.085 365.456 407.92 364.813C409.969 364.103 410.853 363.286 410.679 361.786C410.232 359.652 409.677 357.542 409.018 355.464L400.646 354.057Z" fill="#37474F"/>
<path d="M413.357 343.586C413.357 343.586 412.607 349.828 412.553 351.167C412.5 352.507 406.459 352.935 405.307 350.484L405.119 342.849L413.357 343.586Z" fill="#F28F8F"/>
<path d="M407.277 347.415L409.434 356.898C409.434 356.898 409.635 358.05 404.705 358.787C399.776 359.524 392.034 356.202 390.708 355.532C389.382 354.862 389.235 353.509 394.083 353.777C398.932 354.045 400.647 354.059 400.647 354.059L399.066 349.866L407.277 347.415Z" fill="#FFA8A7"/>
<path d="M417.429 190.028L420.844 189.077C420.844 189.077 427.984 211.674 428.774 213.857C429.564 216.04 430.462 218.344 428.921 221.036C427.086 224.238 417.429 237.11 417.429 237.11L411.294 231.109L418.259 218.358L412.098 205.901L417.429 190.028Z" fill="#F28F8F"/>
<path d="M382.351 160.681C381.55 159.178 381.143 157.496 381.169 155.793C381.195 154.09 381.652 152.421 382.498 150.943C385.9 144.634 393.481 141.567 402.509 142.732C406.689 143.281 411.618 146.751 414.31 151.934C417.284 157.681 417.565 169.253 418.328 173.634L382.351 160.681Z" fill="#37474F"/>
<path d="M382.107 163.16C382.107 163.16 379.964 167.245 380.339 167.62C380.894 167.945 381.502 168.171 382.134 168.29L382.107 163.16Z" fill="#FFA8A7"/>
<path d="M388.618 150.248C386.287 151.762 382.269 154.548 382.095 163.723C381.907 173.099 383.247 176.193 384.64 177.278C385.577 178.015 391.083 177.64 393.44 177.091C395.797 176.542 402.589 173.18 405.04 168.076C407.92 162.076 407.33 153.342 403.057 150.663C400.883 149.377 398.417 148.665 395.891 148.592C393.366 148.519 390.863 149.089 388.618 150.248Z" fill="#FFA8A7"/>
<path d="M413.358 220.596C417.484 227.026 421.395 232.651 422.253 239.911C424.021 255.168 418.234 272.608 416.988 283.899C419.331 287.111 420.682 290.939 420.873 294.91C420.873 299.584 413.358 343.586 413.358 343.586C413.358 343.586 407.893 345.247 405.121 342.849L399.964 261.905L402.643 252.047L413.358 220.596Z" fill="#03D7BD"/>
<path opacity="0.2" d="M413.358 220.596C417.484 227.026 421.395 232.651 422.253 239.911C424.021 255.168 418.234 272.608 416.988 283.899C419.331 287.111 420.682 290.939 420.873 294.91C420.873 299.584 413.358 343.586 413.358 343.586C413.358 343.586 407.893 345.247 405.121 342.849L399.964 261.905L402.643 252.047L413.358 220.596Z" fill="black"/>
<path d="M399.964 261.905L402.643 252.047C407.772 250.697 412.719 248.731 417.377 246.194C417.377 246.194 414.591 251.27 406.581 254.056L402.442 266.714L402.094 295.713L399.964 261.905Z" fill="#03D7BD"/>
<path opacity="0.3" d="M399.964 261.905L402.643 252.047C407.772 250.697 412.719 248.731 417.377 246.194C417.377 246.194 414.591 251.27 406.581 254.056L402.442 266.714L402.094 295.713L399.964 261.905Z" fill="black"/>
<path d="M413.359 220.596C415.569 224.213 420.846 230.374 419.721 236.308C418.382 243.488 414.497 248.537 402.683 252.047L391.593 292.231C391.593 292.231 397.366 297.589 399.134 302.772C400.902 307.956 407.278 347.443 407.278 347.443C407.278 347.443 405.295 350.671 399.067 349.895C399.067 349.895 377.354 300.334 375.827 297.106C373.974 293.837 373.324 290.022 373.992 286.324C374.675 281.127 382.029 224.24 382.029 224.24L413.359 220.596Z" fill="#03D7BD"/>
<path opacity="0.2" d="M413.359 220.596C415.569 224.213 420.846 230.374 419.721 236.308C418.382 243.488 414.497 248.537 402.683 252.047L391.593 292.231C391.593 292.231 397.366 297.589 399.134 302.772C400.902 307.956 407.278 347.443 407.278 347.443C407.278 347.443 405.295 350.671 399.067 349.895C399.067 349.895 377.354 300.334 375.827 297.106C373.974 293.837 373.324 290.022 373.992 286.324C374.675 281.127 382.029 224.24 382.029 224.24L413.359 220.596Z" fill="black"/>
<path d="M417.43 190.028L389.837 185.567C389.274 185.447 388.364 185.219 387.158 184.911C387.158 184.911 385.979 202.217 378.894 206.181C379.068 207.012 379.215 207.936 379.349 208.994C379.764 212.316 382.028 224.184 382.028 224.184C382.028 224.184 392.744 229.368 401.544 226.863C410.344 224.358 413.318 220.621 413.318 220.621L408.911 213.441C410.143 210.454 415.689 198.453 417.43 190.028Z" fill="#03D7BD"/>
<path opacity="0.7" d="M417.43 190.028L389.837 185.567C389.274 185.447 388.364 185.219 387.158 184.911C387.158 184.911 385.979 202.217 378.894 206.181C379.068 207.012 379.215 207.936 379.349 208.994C379.764 212.316 382.028 224.184 382.028 224.184C382.028 224.184 392.744 229.368 401.544 226.863C410.344 224.358 413.318 220.621 413.318 220.621L408.911 213.441C410.143 210.454 415.689 198.453 417.43 190.028Z" fill="white"/>
<path d="M410.156 210.59C406.492 212.791 402.652 214.686 398.677 216.256C402.285 216.184 405.817 215.208 408.95 213.416L410.156 210.59Z" fill="#03D7BD"/>
<path d="M387.933 150.702C387.933 150.702 386.594 159.408 389.755 164.525C389.755 164.525 390.934 161.056 393.867 161.712C396.8 162.369 396.961 166.24 394.898 168.41C394.374 169.018 393.689 169.467 392.921 169.704C392.154 169.941 391.335 169.956 390.559 169.749C390.559 169.749 390.09 176.044 389.835 181.322C389.581 186.599 388.188 198.105 394.122 202.753C400.055 207.401 414.95 209.035 421.929 199.284C425.813 193.859 420.656 184.269 418.259 173.513C416.048 163.628 414.803 148.974 404.315 146.616C393.827 144.259 387.933 150.702 387.933 150.702Z" fill="#37474F"/>
<path d="M426.417 31.7444L424.207 33.0839C424.392 32.2975 424.496 31.494 424.515 30.6862C424.515 26.199 421.367 24.3908 417.483 26.6678C416.3 27.3809 415.246 28.2863 414.362 29.3468C414.362 23.3192 410.129 20.868 404.905 23.8818C402.152 25.677 399.861 28.0959 398.218 30.9421C396.575 33.7883 395.626 36.9818 395.448 40.2634C395.448 40.5715 395.448 40.8661 395.448 41.1608C394.103 40.9915 392.741 41.3047 391.604 42.0449C389.557 43.3786 387.854 45.1762 386.632 47.2918C385.41 49.4073 384.704 51.7811 384.572 54.2206C384.571 54.7877 384.63 55.3533 384.746 55.9083L383.567 56.5914C380.366 58.4399 377.768 62.043 377.768 64.6282C377.768 67.2133 380.366 67.8295 383.567 65.9676L426.43 41.2546C429.632 39.4061 432.23 35.803 432.23 33.2178C432.23 30.6327 429.618 29.8826 426.417 31.7444Z" fill="#EBEBEB"/>
</svg>
